<svg width="32" height="32" viewBox="0 0 32 32" fill="none" xmlns="http://www.w3.org/2000/svg">
    <path
        d="M22.0001 9.99935H22.0027M20.0001 15.9993C20.0001 18.2085 18.2092 19.9993 16.0001 19.9993C13.7909 19.9993 12.0001 18.2085 12.0001 15.9993C12.0001 13.7902 13.7909 11.9993 16.0001 11.9993C18.2092 11.9993 20.0001 13.7902 20.0001 15.9993ZM16.0001 27.3327V27.3327C21.0115 27.3327 23.5172 27.3327 25.1901 25.9289C25.4577 25.7044 25.7052 25.457 25.9297 25.1894C27.3334 23.5165 27.3334 21.0108 27.3334 15.9993V15.9993C27.3334 10.9879 27.3334 8.48219 25.9297 6.80929C25.7052 6.54172 25.4577 6.29427 25.1901 6.06975C23.5172 4.66602 21.0115 4.66602 16.0001 4.66602V4.66602C10.9886 4.66602 8.48293 4.66602 6.81002 6.06975C6.54245 6.29427 6.295 6.54172 6.07048 6.80929C4.66675 8.48219 4.66675 10.9879 4.66675 15.9993V15.9993C4.66675 21.0108 4.66675 23.5165 6.07048 25.1894C6.295 25.457 6.54245 25.7044 6.81002 25.9289C8.48293 27.3327 10.9886 27.3327 16.0001 27.3327Z"
        stroke="#653E36" stroke-width="2" stroke-linecap="round" stroke-linejoin="round" />
</svg>