<svg width="90" height="90" viewBox="0 0 90 90" fill="none" xmlns="http://www.w3.org/2000/svg">
    <path d="M11.8872 27.8994L44.9997 47.0619L77.8871 28.0118" stroke="#EAE4E5" stroke-width="3" stroke-linecap="round"
        stroke-linejoin="round" />
    <path d="M44.9995 81.0369V47.0244" stroke="#EAE4E5" stroke-width="3" stroke-linecap="round"
        stroke-linejoin="round" />
    <path
        d="M8.9624 34.3872C8.9624 29.2122 12.6748 22.9122 17.2123 20.3997L37.2373 9.26211C41.5123 6.89961 48.5248 6.89961 52.7998 9.26211L72.8249 20.3997C77.3624 22.9122 81.0748 29.2122 81.0748 34.3872V55.5747C81.0748 60.7497 77.3624 67.0497 72.8249 69.5622L52.7998 80.6998C48.5248 83.0623 41.5123 83.0623 37.2373 80.6998L17.2123 69.5622C12.6748 67.0497 8.9624 60.7497 8.9624 55.5747V52.4997"
        stroke="#EAE4E5" stroke-width="3" stroke-linecap="round" stroke-linejoin="round" />
    <path d="M63.7501 49.6501V35.9252L40.9875 22.7626L37.0501 20.5125L28.1626 15.375" stroke="#EAE4E5" stroke-width="3"
        stroke-linecap="round" stroke-linejoin="round" />
</svg>