<svg width="90" height="90" viewBox="0 0 90 90" fill="none" xmlns="http://www.w3.org/2000/svg">
    <path d="M32.5125 52.5H15C10.875 52.5 7.5 55.875 7.5 60V82.5H32.5125V52.5Z" stroke="#EAE4E5" stroke-width="3"
        stroke-miterlimit="10" stroke-linecap="round" stroke-linejoin="round" />
    <path
        d="M57.4876 45C57.4876 40.875 54.1126 37.5 49.9876 37.5H39.9751C35.8501 37.5 32.4751 40.875 32.4751 45V82.5H57.4876V60"
        stroke="#EAE4E5" stroke-width="3" stroke-miterlimit="10" stroke-linecap="round" stroke-linejoin="round" />
    <path d="M74.9998 63.75H57.4873V82.5H82.4998V71.25C82.4998 67.125 79.1248 63.75 74.9998 63.75Z" stroke="#EAE4E5"
        stroke-width="3" stroke-miterlimit="10" stroke-linecap="round" stroke-linejoin="round" />
    <path
        d="M46.9499 7.76257L48.9374 11.7376C49.1999 12.3001 49.9124 12.8251 50.5124 12.9001L54.1124 13.5001C56.3999 13.8751 56.9624 15.5625 55.3124 17.175L52.4999 19.9875C52.0124 20.475 51.7499 21.375 51.8999 22.0125L52.6874 25.4626C53.3249 28.2001 51.8624 29.2501 49.4624 27.8251L46.0874 25.8376C45.4874 25.4626 44.4749 25.4626 43.8749 25.8376L40.4999 27.8251C38.0999 29.2501 36.6374 28.2001 37.2749 25.4626L38.0624 22.0125C38.2124 21.375 37.9499 20.4375 37.4624 19.9875L34.6874 17.2125C33.0374 15.5625 33.5624 13.9125 35.8874 13.5375L39.4874 12.9376C40.0874 12.8251 40.7999 12.3001 41.0624 11.7751L43.0499 7.79999C44.1374 5.62499 45.8624 5.62507 46.9499 7.76257Z"
        stroke="#EAE4E5" stroke-width="3" stroke-linecap="round" stroke-linejoin="round" />
</svg>