<svg width="32" height="32" viewBox="0 0 32 32" fill="none" xmlns="http://www.w3.org/2000/svg">
    <path
        d="M26.1304 11.3748C25.0085 7.10203 21.5049 4 16.0217 4C9.27173 4 5.52173 8.70101 5.52173 14.5V17.5C5.52173 23.299 9.27173 28 16.0217 28C18.4373 28 20.4379 27.4377 22.0217 26.4621C23.629 25.4722 24.7154 24.071 25.0217 22.3539C26.3007 15.1844 16.3152 14.5 13.7717 16C10.8826 17.7038 12.553 20.8388 14.053 21.4375C15.932 22.1875 18.5823 21.9116 19.9124 19.8906C21.2559 17.8492 21.2271 13.0778 19.3967 11.3748C17.5664 9.67176 13.7717 9.25 12.1311 11.875"
        stroke="#653E36" stroke-width="2" stroke-linecap="round" />
</svg>